<?xml version="1.0" encoding="UTF-8"?>
<svg width="1000px" height="1000px" viewBox="0 0 1000 1000" version="1.1" xmlns="http://www.w3.org/2000/svg" xmlns:xlink="http://www.w3.org/1999/xlink">
    <!-- Generator: Sketch 55.1 (78136) - https://sketchapp.com -->
    <title>编组 45</title>
    <desc>Created with Sketch.</desc>
    <g id="上传2" stroke="none" stroke-width="1" fill="none" fill-rule="evenodd">
        <g id="4" transform="translate(-276.000000, -4679.000000)">
            <g id="编组-45" transform="translate(276.000000, 4679.000000)">
                <rect id="矩形备份-5" x="0" y="0" width="1000" height="1000"></rect>
                <g id="Ecommerce" transform="translate(136.000000, 133.000000)">
                    <path d="M239.130435,572.863636 C239.130435,570.25 240,567.636364 240,564.151515 C240,560.666667 240,558.924242 239.130435,555.439394 L239.130435,553.69697 L239.130435,553.69697 C233.913043,514.492424 200.869565,484 160,484 C120,484 86.0869565,514.492424 80.8695652,553.69697 C80.8695652,553.69697 80,553.69697 80,553.69697 C35.6521739,553.69697 0,589.416667 0,633.848485 C0,678.280303 35.6521739,714 80,714 C81.7391304,714 82.6086957,714 84.3478261,714 L239.130435,714 L239.130435,572.863636 Z" id="路径" fill="#7FCC18" fill-rule="nonzero"></path>
                    <path d="M521.869565,572.863636 C521.869565,570.25 521,567.636364 521,564.151515 C521,560.666667 521,558.924242 521.869565,555.439394 L521.869565,553.69697 L521.869565,553.69697 C527.086957,514.492424 560.130435,484 601,484 C641,484 674.913043,514.492424 680.130435,553.69697 C680.130435,553.69697 681,553.69697 681,553.69697 C725.347826,553.69697 761,589.416667 761,633.848485 C761,678.280303 725.347826,714 681,714 C679.26087,714 678.391304,714 676.652174,714 L521.869565,714 L521.869565,572.863636 Z" id="路径" fill="#7FCC18" fill-rule="nonzero"></path>
                    <g id="编组" transform="translate(160.000000, 0.000000)" fill-rule="nonzero">
                        <path d="M396.584615,713 L45.4153846,713 C20.2076923,713 0.215384615,693.00122 0.215384615,667.785366 L0.215384615,45.2146341 C0.215384615,19.9987805 20.2076923,0 45.4153846,0 L396.584615,0 C421.792308,0 441.784615,19.9987805 441.784615,45.2146341 L441.784615,666.915854 C441.784615,693.00122 421.792308,713 396.584615,713 Z" id="路径" fill="#ECF0F1"></path>
                        <path d="M381.807692,644.308537 L60.1923077,644.308537 C54.9769231,644.308537 51.5,640.830488 51.5,635.613415 L51.5,60.8658537 C51.5,55.6487805 54.9769231,52.1707317 60.1923077,52.1707317 L381.807692,52.1707317 C387.023077,52.1707317 390.5,55.6487805 390.5,60.8658537 L390.5,635.613415 C390.5,639.960976 387.023077,644.308537 381.807692,644.308537 Z" id="路径" fill="#2B3E53"></path>
                        <path d="M272.284615,692.131707 L169.715385,692.131707 C163.630769,692.131707 159.284615,686.914634 159.284615,681.697561 L159.284615,677.35 C159.284615,671.263415 164.5,666.915854 169.715385,666.915854 L272.284615,666.915854 C278.369231,666.915854 282.715385,672.132927 282.715385,677.35 L282.715385,681.697561 C282.715385,686.914634 278.369231,692.131707 272.284615,692.131707 Z" id="路径" fill="#2B3E53"></path>
                    </g>
                    <path d="M487.129032,337.314286 L487.129032,337.314286 L469.709677,424.457143 L469.709677,424.457143 C468.83871,428.814286 465.354839,431.428571 461,431.428571 L351.258065,431.428571 L363.451613,466.285714 L444.451613,466.285714 C449.677419,466.285714 453.16129,469.771429 453.16129,475 C453.16129,479.357143 449.677419,483.714286 444.451613,483.714286 L357.354839,483.714286 C353,483.714286 350.387097,481.1 349.516129,477.614286 L349.516129,477.614286 L291.16129,309.428571 L253.709677,309.428571 C248.483871,309.428571 245,305.071429 245,300.714286 C245,295.485714 248.483871,292 253.709677,292 L297.258065,292 C301.612903,292 304.225806,294.614286 305.096774,298.1 L305.096774,298.1 L314.677419,326.857143 L479.290323,326.857143 C483.645161,326.857143 488,331.214286 488,335.571429 C488,336.442857 487.129032,336.442857 487.129032,337.314286 L487.129032,337.314286 Z M320.774194,344.285714 L345.16129,414 L348.645161,414 L454.903226,414 L468.83871,344.285714 L320.774194,344.285714 L320.774194,344.285714 Z M339.935484,501.142857 C349.516129,501.142857 357.354839,508.985714 357.354839,518.571429 C357.354839,528.157143 349.516129,536 339.935484,536 C330.354839,536 322.516129,528.157143 322.516129,518.571429 C322.516129,508.985714 330.354839,501.142857 339.935484,501.142857 L339.935484,501.142857 Z M453.16129,501.142857 C462.741935,501.142857 470.580645,508.985714 470.580645,518.571429 C470.580645,528.157143 462.741935,536 453.16129,536 C443.580645,536 435.741935,528.157143 435.741935,518.571429 C435.741935,508.985714 443.580645,501.142857 453.16129,501.142857 L453.16129,501.142857 Z" id="形状" fill="#FFCD00"></path>
                    <g id="编组" transform="translate(108.000000, 50.000000)" fill-rule="nonzero">
                        <path d="M111.4125,97.4 C112.28125,129.59 131.39375,154.82 161.8,154.82 C192.20625,154.82 211.31875,129.59 219.1375,97.4 L219.1375,97.4 C219.1375,129.59 242.59375,156.56 273,156.56 C303.40625,156.56 326.8625,129.59 326.8625,97.4 L326.8625,97.4 C330.3375,129.59 353.79375,155.69 384.2,155.69 C414.60625,155.69 435.45625,129.59 434.5875,97.4 L434.5875,97.4 C438.0625,129.59 464.99375,156.56 495.4,156.56 C519.725,156.56 537.96875,139.16 541.44375,115.67 C543.18125,104.36 538.8375,93.05 531.01875,85.22 C508.43125,63.47 457.175,14.75 445.0125,3.44 C443.275,1.7 441.5375,0.83 438.93125,0.83 L107.06875,0.83 C104.4625,0.83 102.725,1.7 100.9875,3.44 L14.98125,85.22 C6.29375,93.05 2.81875,104.36 4.55625,115.67 C8.9,139.16 27.14375,156.56 50.6,156.56 C81.00625,156.56 107.9375,129.59 111.4125,97.4 L111.4125,97.4 Z" id="路径" fill="#F24B45"></path>
                        <g fill="#DE3C38" id="矩形">
                            <rect x="0.2125" y="97.4" width="545.575" height="64.38"></rect>
                            <rect x="69.7125" y="0.83" width="390.9375" height="17.4"></rect>
                        </g>
                        <path d="M171.35625,1.7 L111.4125,97.4 L111.4125,97.4 C108.80625,130.46 131.39375,156.56 161.8,156.56 C192.20625,156.56 218.26875,128.72 219.1375,95.66 L239.11875,1.7 L171.35625,1.7 Z" id="路径" fill="#F2EAC4"></path>
                        <path d="M374.64375,1.7 L434.5875,97.4 L434.5875,97.4 C437.19375,130.46 414.60625,156.56 384.2,156.56 C353.79375,156.56 327.73125,128.72 326.8625,95.66 L306.88125,1.7 L374.64375,1.7 Z" id="路径" fill="#F2EAC4"></path>
                        <g transform="translate(99.250000, 0.000000)" id="矩形">
                            <rect fill="#F2DA98" x="0" y="97.4" width="129.44375" height="64.38"></rect>
                            <rect fill="#F2D891" x="52.99375" y="0.83" width="93.825" height="17.4"></rect>
                        </g>
                        <g transform="translate(301.062500, 0.000000)" id="矩形">
                            <rect fill="#F2DA98" x="16.24375" y="97.4" width="129.44375" height="64.38"></rect>
                            <rect fill="#F2D891" x="0.60625" y="0.83" width="92.0875" height="17.4"></rect>
                        </g>
                    </g>
                </g>
            </g>
        </g>
    </g>
</svg>