<svg id="Capa_1" enable-background="new 0 0 497.083 497.083" height="512" viewBox="0 0 497.083 497.083" width="512" xmlns="http://www.w3.org/2000/svg"><g><g><g><path d="m480.434 226.957.083 253.517c0 9.15-7.418 16.568-16.568 16.568h-430.732c-9.15 0-16.568-7.418-16.568-16.568l-.083-253.517z" fill="#ffc200"/><path d="m228.533 14.991h28v451.934h-28z" fill="#fe9900" transform="matrix(0 1 -1 0 483.491 -1.576)"/><path d="m457.434 226.957.083 253.517c0 9.15-7.418 16.568-16.568 16.568h23c9.15 0 16.568-7.418 16.568-16.568l-.083-253.517z" fill="#fe9900"/><path d="m405.724 6.042c5.35 0 10.371-3.416 13.481.937l76.635 123.59c.813 1.311 1.243 2.823 1.243 4.365l-.083 88.74c0 4.575-3.709 8.283-8.283 8.283h-480.434c-4.575 0-8.283-3.709-8.283-8.283l.083-88.74c0-1.542.431-3.054 1.244-4.365l76.634-123.59c3.11-4.354 8.131-.938 13.481-.938h314.282z" fill="#ffd900"/><path d="m.432 132.575h496.301c-.209-.701-.505-1.378-.894-2.005l-76.634-123.591c-3.11-4.354-8.131-6.938-13.481-6.938h-123.946l-33.22 14-32.469-14h-124.647c-5.35 0-10.371 2.584-13.481 6.938l-76.635 123.59c-.389.628-.685 1.304-.894 2.006z" fill="#ffc200"/><path d="m495.84 130.569-76.635-123.59c-3.11-4.354-8.131-6.938-13.481-6.938h-23c5.35 0 10.371 2.584 13.481 6.938l76.635 123.59c.813 1.311 1.244 2.823 1.244 4.365l-.084 88.74c0 4.575-3.709 8.283-8.283 8.283h23c4.575 0 8.283-3.709 8.283-8.283l.083-88.74c0-1.542-.431-3.054-1.243-4.365z" fill="#ffc200"/><path d="m396.205 6.979 76.635 123.59c.389.628.685 1.304.894 2.005h23c-.104-.35-.23-.694-.379-1.029-.15-.335-.32-.662-.515-.976l-76.635-123.59c-3.11-4.354-8.131-6.938-13.481-6.938h-23c5.35.001 10.371 2.584 13.481 6.938z" fill="#fe9900"/><path d="m174.316 463.908h-116.533c-4.418 0-8-3.582-8-8v-75.117c0-4.418 3.582-8 8-8h116.533c4.418 0 8 3.582 8 8v75.117c0 4.418-3.581 8-8 8z" fill="#f3edea"/><g><path d="m82.917 446.558c-4.143 0-7.5-3.358-7.5-7.5v-8.283c0-4.142 3.357-7.5 7.5-7.5s7.5 3.358 7.5 7.5v8.283c0 4.142-3.358 7.5-7.5 7.5z" fill="#004a84"/></g><g><path d="m116.05 446.558c-4.143 0-7.5-3.358-7.5-7.5v-8.283c0-4.142 3.357-7.5 7.5-7.5s7.5 3.358 7.5 7.5v8.283c0 4.142-3.358 7.5-7.5 7.5z" fill="#004a84"/></g><g><path d="m149.183 446.558c-4.143 0-7.5-3.358-7.5-7.5v-8.283c0-4.142 3.357-7.5 7.5-7.5s7.5 3.358 7.5 7.5v8.283c0 4.142-3.357 7.5-7.5 7.5z" fill="#004a84"/></g><path d="m174.316 372.791h-23c4.418 0 8 3.582 8 8v75.117c0 4.418-3.582 8-8 8h23c4.418 0 8-3.582 8-8v-75.117c0-4.418-3.581-8-8-8z" fill="#e3dcda"/><path d="m174.316 372.791h-116.533c-4.418 0-8 3.582-8 8v25.133h132.533v-25.133c0-4.418-3.581-8-8-8z" fill="#ff5b5b"/><path d="m174.316 372.791h-23c4.418 0 8 3.582 8 8v25.133h23v-25.133c0-4.418-3.581-8-8-8z" fill="#e50048"/></g><g><path d="m298.283 132.575v5h-99.4v-5l16.567-132.533h66.266z" fill="#f3edea"/><path d="m198.883 226.975v46.417c0 4.575 3.709 8.283 8.283 8.283h82.834c4.575 0 8.283-3.709 8.283-8.283v-46.417z" fill="#f3edea"/><path d="m275.083 226.975v46.417c0 4.575-3.709 8.283-8.283 8.283h23.2c4.575 0 8.283-3.708 8.283-8.283v-46.417z" fill="#e3dcda"/><g><g><path d="m124.616 347.941h-66.833c-4.418 0-8-3.582-8-8v-66.833c0-4.418 3.582-8 8-8h66.833c4.418 0 8 3.582 8 8v66.833c0 4.419-3.581 8-8 8z" fill="#7fe881"/><g><path d="m107.767 314.025c-1.919 0-3.839-.732-5.304-2.196l-11.263-11.264-11.265 11.264c-2.929 2.929-7.678 2.928-10.606-.001-2.929-2.929-2.929-7.678.001-10.606l16.567-16.566c2.928-2.929 7.677-2.927 10.606 0l16.566 16.566c2.929 2.93 2.929 7.678 0 10.607-1.464 1.464-3.384 2.196-5.302 2.196z" fill="#f3edea"/></g></g><g><path d="m91.2 330.591c-4.143 0-7.5-3.357-7.5-7.5v-33.133c0-4.143 3.357-7.5 7.5-7.5s7.5 3.357 7.5 7.5v33.133c0 4.143-3.357 7.5-7.5 7.5z" fill="#f3edea"/></g></g><path d="m281.716.042h-23.2l16.567 132.533h23.2z" fill="#e3dcda"/><path d="m198.883 132.575h99.4v99.4h-99.4z" fill="#e3dcda"/><path d="m275.083 132.275h23v100h-23z" fill="#dbceca"/></g><circle cx="405.966" cy="372.791" fill="#0068ae" r="91.117"/><path d="m405.966 281.675c-3.896 0-7.733.246-11.5.72 44.893 5.654 79.616 43.97 79.616 90.397s-34.723 84.742-79.616 90.396c3.767.474 7.604.72 11.5.72 50.322 0 91.116-40.794 91.116-91.116.001-50.323-40.793-91.117-91.116-91.117z" fill="#004a84"/></g><circle cx="405.966" cy="372.791" fill="#f3edea" r="57.983"/><g><g><path d="m430.816 380.292h-24.851c-4.143 0-7.5-3.357-7.5-7.5v-33.134c0-4.143 3.357-7.5 7.5-7.5s7.5 3.357 7.5 7.5v25.634h17.351c4.143 0 7.5 3.357 7.5 7.5s-3.357 7.5-7.5 7.5z" fill="#7fe881"/></g></g></g></svg>