<svg id="Layer_2" height="512" viewBox="0 0 64 64" width="512" xmlns="http://www.w3.org/2000/svg" data-name="Layer 2"><path d="m62.751 50.6-1.975-1.141a13.025 13.025 0 0 0 0-4.926l1.975-1.133a1.5 1.5 0 0 0 .549-2.048l-3-5.2a1.5 1.5 0 0 0 -2.049-.548l-1.973 1.137a13.489 13.489 0 0 0 -4.267-2.457v-2.284a1.5 1.5 0 0 0 -1.5-1.5h-6a1.5 1.5 0 0 0 -1.5 1.5v2.284a13.479 13.479 0 0 0 -4.269 2.457l-1.971-1.141a1.5 1.5 0 0 0 -2.049.548l-3 5.2a1.5 1.5 0 0 0 .549 2.048l1.974 1.141a13.079 13.079 0 0 0 0 4.926l-1.974 1.137a1.5 1.5 0 0 0 -.549 2.048l3 5.2a1.5 1.5 0 0 0 2.049.548l1.971-1.137a13.479 13.479 0 0 0 4.269 2.457v2.284a1.5 1.5 0 0 0 1.5 1.5h6a1.5 1.5 0 0 0 1.5-1.5v-2.284a13.489 13.489 0 0 0 4.267-2.457l1.973 1.141a1.5 1.5 0 0 0 2.049-.548l3-5.2a1.5 1.5 0 0 0 -.549-2.052zm-15.24 3.4a7 7 0 1 1 7-7 7.008 7.008 0 0 1 -7 7z" fill="#3e3ef4"/><path d="m33.37 25.606a18.409 18.409 0 0 0 5.2-12.649c.002-7.334-5.12-12.457-12.454-12.457s-12.456 5.123-12.456 12.457a18.4 18.4 0 0 0 5.206 12.652 24.148 24.148 0 0 0 -18.366 23.501 1.5 1.5 0 0 0 .749 1.3 47.209 47.209 0 0 0 24.867 7.064 46.7 46.7 0 0 0 4.774-.258l-1.658-2.872c-1.045.077-2.086.129-3.116.13a44.219 44.219 0 0 1 -22.6-6.2 21.132 21.132 0 0 1 13.52-18.945l7.781 13.476a1.5 1.5 0 0 0 2.6 0l7.779-13.471a21.282 21.282 0 0 1 4.817 2.66 4.459 4.459 0 0 1 1.087-2.894 24.632 24.632 0 0 0 -7.73-3.494zm-16.71-12.649c0-5.745 3.712-9.457 9.456-9.457s9.456 3.712 9.456 9.457c0 5.766-4.045 12.884-9.456 12.884-5.378 0-9.456-7.041-9.456-12.884zm9.456 26.1-6.135-10.625a21.733 21.733 0 0 1 2.335-.416 9.165 9.165 0 0 0 7.607 0 21.083 21.083 0 0 1 2.331.415z"/></svg>