<?xml version="1.0" encoding="iso-8859-1"?>
<!-- Generator: Adobe Illustrator 19.0.0, SVG Export Plug-In . SVG Version: 6.00 Build 0)  -->
<svg version="1.1" id="Capa_1" xmlns="http://www.w3.org/2000/svg" xmlns:xlink="http://www.w3.org/1999/xlink" x="0px" y="0px"
	 viewBox="0 0 512.001 512.001" style="enable-background:new 0 0 512.001 512.001;" xml:space="preserve">
<g>
	<g>
		<path d="M213.333,96c-5.888,0-10.667,4.757-10.667,10.667c0.001,5.909,4.779,10.666,10.667,10.666S224,112.554,224,106.666
			S219.221,96,213.333,96z"/>
	</g>
</g>
<g>
	<g>
		<path d="M352.001,42.667c-5.888,0-10.667,4.779-10.667,10.667S346.112,64,352,64c5.867,0,10.667,4.779,10.667,10.667
			s4.779,10.667,10.667,10.667s10.667-4.779,10.667-10.667C384.001,57.003,369.644,42.667,352.001,42.667z"/>
	</g>
</g>
<g>
	<g>
		<path d="M298.667,202.667c-5.099,0-9.344,3.584-10.411,8.363c-1.579,0.917-5.355,2.304-10.923,2.304
			c-5.397,0-9.003-1.28-10.667-2.197v-14.699l18.219-18.219c3.029-3.051,3.947-7.637,2.304-11.627
			c-1.643-3.989-5.547-6.592-9.856-6.592h-42.667c-4.309,0-8.192,2.603-9.856,6.592c-1.664,3.989-0.747,8.576,2.304,11.627
			l18.219,18.219v14.699c-1.664,0.917-5.269,2.197-10.667,2.197c-5.568,0-9.344-1.365-10.923-2.304
			c-1.067-4.8-5.312-8.363-10.411-8.363c-5.888,0-10.667,4.779-10.667,10.667c0.003,12.373,13.464,21.333,32.003,21.333
			c8.469,0,15.787-1.941,21.333-5.141c5.547,3.2,12.864,5.141,21.333,5.141c18.539,0,32-8.96,32-21.333
			C309.333,207.446,304.555,202.667,298.667,202.667z"/>
	</g>
</g>
<g>
	<g>
		<path d="M298.667,96C292.779,96,288,100.757,288,106.667c0,5.909,4.779,10.666,10.667,10.666s10.667-4.779,10.667-10.667
			S304.555,96,298.667,96z"/>
	</g>
</g>
<g>
	<g>
		<path d="M405.333,362.667c35.285,0,64-28.715,64-64c0-35.285-28.715-64-64-64c-13.184,0-25.451,4.032-35.648,10.901
			c-4.608-5.504-9.493-10.56-14.656-15.232C373.12,208.256,384,180.032,384,149.333c0-2.475-0.085-4.949-0.256-7.381
			c25.984-12.224,42.923-38.293,42.923-67.285C426.667,33.493,393.174,0,352,0c-22.485,0-43.477,10.069-57.6,27.307
			c-25.045-7.936-51.755-7.936-76.8,0C203.477,10.048,182.508,0,160,0c-41.173,0-74.667,33.493-74.667,74.667
			c0,29.013,16.939,55.083,42.923,67.285c-0.171,2.432-0.256,4.885-0.256,7.381c0,30.72,10.88,58.923,28.992,81.003
			c-5.184,4.651-10.048,9.728-14.656,15.211c-10.219-6.869-22.485-10.88-35.669-10.88c-35.285,0-64,28.715-64,64
			c0,35.285,28.715,64,64,64c0.619,0,1.195-0.171,1.792-0.192c0.512,3.584,1.152,7.104,1.92,10.603
			c-2.965,1.813-5.845,3.797-8.341,6.272c-23.638,23.658-16.022,68.33,17.322,101.695c15.36,15.339,33.963,25.835,52.352,29.504
			c4.821,1.003,9.536,1.451,14.037,1.451c14.08,0,26.304-4.672,35.307-13.653c3.136-3.136,5.675-6.72,7.744-10.603
			c9.152,1.749,18.283,2.923,27.2,2.923s18.048-1.173,27.221-2.901c2.069,3.883,4.608,7.467,7.744,10.603
			c8.981,8.96,21.205,13.632,35.285,13.632c4.501,0,9.216-0.469,14.059-1.451c18.389-3.669,36.992-14.144,52.352-29.504
			c33.365-33.365,40.96-78.037,17.323-101.696c-2.496-2.496-5.376-4.48-8.363-6.293c0.747-3.499,1.408-7.019,1.899-10.603
			C404.14,362.496,404.716,362.667,405.333,362.667z M149.333,149.333c0-4.395,0.363-8.704,0.875-12.992
			c0.619-5.013-2.368-9.792-7.168-11.413c-21.739-7.339-36.373-27.541-36.373-50.261c0-29.397,23.915-53.333,53.333-53.333
			c18.091,0,34.795,9.152,44.693,24.448c2.752,4.245,8.107,5.973,12.821,4.16c24.917-9.664,52.032-9.664,76.949,0
			c4.693,1.835,10.069,0.085,12.821-4.16c9.92-15.296,26.624-24.448,44.715-24.448c29.419,0,53.333,23.936,53.333,53.333
			c0,22.72-14.635,42.923-36.373,50.283c-4.8,1.621-7.787,6.4-7.168,11.413c0.512,4.245,0.875,8.576,0.875,12.971
			c0,29.099-11.776,55.445-30.72,74.709c-3.904,3.968-8.213,7.339-12.587,10.603c-1.28,0.939-2.347,2.133-3.669,3.029
			c-3.008,2.048-6.336,3.477-9.515,5.205c-8.512,4.587-17.536,8.363-27.243,10.496c-0.512,0.107-0.981,0.363-1.515,0.469
			C270.529,255.232,263.339,256,256,256s-14.528-0.747-21.461-2.176c-0.533-0.107-1.003-0.363-1.515-0.469
			c-9.664-2.133-18.624-5.867-27.115-10.432c-3.221-1.728-6.592-3.2-9.621-5.269c-1.323-0.896-2.389-2.069-3.669-3.029
			c-4.373-3.264-8.683-6.635-12.587-10.603C161.109,204.779,149.333,178.411,149.333,149.333z M106.667,341.333
			C83.136,341.333,64,322.197,64,298.667C64,275.136,83.136,256,106.667,256c11.563,0,22.016,4.651,29.717,12.139
			c6.229,6.08,10.389,13.675,12.096,21.973c0.555,2.752,0.853,5.611,0.853,8.555c0,2.709-0.32,5.355-0.811,7.936
			c-0.213,1.067-0.555,2.112-0.853,3.157c-0.384,1.429-0.789,2.859-1.301,4.224c-0.491,1.237-1.067,2.411-1.643,3.584
			c-0.533,1.088-1.109,2.155-1.728,3.179c-0.725,1.173-1.515,2.325-2.347,3.435c-0.683,0.917-1.429,1.792-2.197,2.667
			c-0.917,1.045-1.856,2.069-2.88,3.008c-0.853,0.789-1.792,1.515-2.709,2.24c-1.067,0.853-2.133,1.707-3.285,2.453
			c-1.024,0.661-2.133,1.173-3.2,1.749c-1.216,0.64-2.368,1.344-3.648,1.856c-0.725,0.299-1.515,0.448-2.261,0.704
			c-1.6,0.555-3.179,1.131-4.864,1.493c-0.107,0.021-0.171,0.085-0.277,0.107C112.534,341.013,109.632,341.333,106.667,341.333z
			 M213.036,465.707c-0.021,0.085-0.021,0.107-0.021,0.128c-0.192,2.368-0.597,4.651-1.237,6.827c-0.021,0.085,0,0.171-0.021,0.256
			c-1.216,4.011-3.029,7.616-5.803,10.389c-6.656,6.635-17.323,8.875-30.08,6.357c-14.315-2.859-29.013-11.264-41.429-23.68
			c-24.064-24.085-32-56.853-17.323-71.531c2.261-2.261,5.099-3.925,8.235-5.141c0.277-0.085,0.597-0.021,0.875-0.128
			c1.387-0.491,2.88-0.704,4.352-1.003c1.216-0.235,2.432-0.491,3.733-0.619c8.619-0.768,18.432,1.365,28.245,5.888
			c1.173,0.555,2.347,1.067,3.52,1.685c1.749,0.917,3.477,1.941,5.205,2.987c1.643,1.024,3.243,2.112,4.843,3.243
			c1.301,0.917,2.603,1.813,3.883,2.816c2.944,2.347,5.867,4.821,8.619,7.573c0.043,0.043,0.085,0.085,0.128,0.128
			c2.731,2.731,5.184,5.611,7.509,8.533c0.832,1.045,1.557,2.112,2.325,3.157c1.429,1.963,2.752,3.968,3.989,5.973
			c0.768,1.259,1.536,2.517,2.219,3.776c1.195,2.197,2.219,4.416,3.179,6.635c0.576,1.344,1.152,2.688,1.643,4.032
			c0.896,2.517,1.643,5.035,2.219,7.552c0.405,1.792,0.683,3.584,0.896,5.333c0.107,0.768,0.192,1.515,0.256,2.261
			C213.164,461.376,213.206,463.573,213.036,465.707z M296.812,410.133c-2.645,3.563-5.077,7.189-7.189,10.901
			c-0.171,0.299-0.384,0.576-0.555,0.896c-2.155,3.861-3.947,7.787-5.525,11.712c-0.491,1.237-0.939,2.475-1.365,3.712
			c-1.045,2.965-1.899,5.931-2.581,8.896c-0.213,0.939-0.619,1.856-0.811,2.773c-0.128,0.64-0.064,1.216-0.192,1.856
			c-0.555,3.221-0.853,6.4-0.96,9.536c-0.085,2.027-0.064,4.011,0.043,5.973c0.021,0.32-0.021,0.661,0,1.003
			c-14.656,2.624-28.693,2.624-43.371,0c0.021-0.213,0-0.427,0-0.64c0.128-2.197,0.149-4.416,0.043-6.72
			c-0.085-2.432-0.384-4.907-0.725-7.381c-0.192-1.216-0.107-2.368-0.363-3.605c-0.256-1.259-0.789-2.517-1.109-3.776
			c-0.597-2.453-1.301-4.907-2.155-7.381c-0.533-1.536-1.067-3.072-1.707-4.608c-1.515-3.733-3.2-7.445-5.248-11.115
			c-0.341-0.619-0.768-1.216-1.131-1.835c-1.963-3.371-4.181-6.699-6.571-9.941c-0.704-0.96-1.408-1.899-2.155-2.837
			c-2.901-3.712-5.995-7.339-9.451-10.795c-3.435-3.435-7.061-6.507-10.752-9.408c-1.088-0.853-2.176-1.643-3.264-2.453
			c-2.752-2.005-5.568-3.861-8.427-5.568c-1.216-0.747-2.411-1.536-3.648-2.219c-3.456-1.877-6.955-3.52-10.453-4.928
			c-2.069-0.853-4.139-1.493-6.229-2.176c-1.6-0.512-3.2-0.981-4.821-1.408c-1.6-0.427-3.179-1.067-4.757-1.387
			c-7.168-1.429-13.888-1.408-20.288-0.725c-0.149,0.021-0.32,0-0.469,0.021c-0.533-2.624-0.96-5.291-1.323-7.957
			c0.384-0.149,0.725-0.363,1.109-0.533c1.259-0.491,2.411-1.131,3.627-1.707c2.197-1.045,4.331-2.176,6.379-3.456
			c1.28-0.789,2.496-1.621,3.712-2.496c1.877-1.365,3.627-2.837,5.333-4.395c1.067-0.981,2.197-1.877,3.2-2.923
			c2.389-2.496,4.608-5.12,6.571-7.957c0.789-1.131,1.408-2.389,2.112-3.584c1.216-2.005,2.368-4.032,3.349-6.165
			c0.64-1.408,1.195-2.837,1.749-4.288c0.853-2.261,1.557-4.544,2.155-6.912c0.32-1.301,0.683-2.581,0.939-3.925
			c0.661-3.797,1.131-7.637,1.131-11.541c0-4.053-0.469-8-1.195-11.883c-0.213-1.152-0.555-2.24-0.832-3.371
			c-0.661-2.688-1.451-5.312-2.453-7.872c-0.491-1.259-1.024-2.453-1.579-3.669c-1.067-2.283-2.261-4.459-3.605-6.613
			c-0.768-1.237-1.493-2.453-2.325-3.627c-0.384-0.533-0.661-1.131-1.067-1.643c4.352-5.291,9.003-10.155,13.931-14.549
			c0.299,0.256,0.64,0.448,0.96,0.704c5.013,4.331,10.347,8.235,15.979,11.755c1.152,0.725,2.304,1.429,3.477,2.112
			c5.461,3.179,11.157,5.952,17.067,8.299c1.344,0.533,2.688,1.003,4.032,1.472c6.08,2.176,12.309,3.968,18.752,5.205
			c1.003,0.192,2.005,0.299,3.008,0.448c6.891,1.152,13.952,1.899,21.184,1.899s14.293-0.747,21.184-1.899
			c1.003-0.171,2.005-0.277,3.008-0.448c6.443-1.237,12.693-3.029,18.752-5.205c1.344-0.491,2.709-0.939,4.032-1.472
			c5.931-2.347,11.605-5.141,17.067-8.299c1.173-0.683,2.325-1.387,3.477-2.112c5.632-3.52,10.987-7.424,15.979-11.755
			c0.299-0.256,0.661-0.427,0.96-0.704c4.928,4.373,9.579,9.237,13.931,14.549c-0.405,0.533-0.683,1.109-1.067,1.643
			c-0.832,1.173-1.579,2.389-2.325,3.627c-1.323,2.155-2.539,4.331-3.584,6.613c-0.555,1.216-1.109,2.432-1.6,3.669
			c-1.003,2.56-1.792,5.184-2.453,7.872c-0.277,1.131-0.619,2.24-0.853,3.392c-0.704,3.84-1.173,7.808-1.173,11.861
			c0,3.925,0.469,7.744,1.173,11.499c0.235,1.344,0.619,2.624,0.939,3.947c0.597,2.347,1.301,4.629,2.133,6.869
			c0.555,1.472,1.109,2.901,1.749,4.331c0.981,2.112,2.112,4.117,3.307,6.101c0.725,1.216,1.344,2.496,2.155,3.648
			c1.963,2.816,4.16,5.44,6.528,7.915c1.045,1.088,2.197,2.005,3.307,3.008c1.664,1.515,3.371,2.965,5.205,4.288
			c1.237,0.896,2.517,1.749,3.819,2.56c1.984,1.237,4.053,2.347,6.208,3.371c1.259,0.597,2.475,1.259,3.797,1.771
			c0.363,0.149,0.704,0.363,1.067,0.512c-0.363,2.667-0.811,5.333-1.323,7.957c-0.107-0.021-0.235,0-0.341-0.021
			c-6.443-0.704-13.205-0.725-20.416,0.725c-1.515,0.299-3.029,0.939-4.565,1.323c-1.749,0.448-3.499,0.96-5.248,1.536
			c-1.984,0.64-3.925,1.259-5.888,2.048c-3.584,1.429-7.125,3.093-10.645,5.013c-1.152,0.64-2.283,1.387-3.413,2.069
			c-2.923,1.749-5.803,3.648-8.64,5.696c-1.067,0.789-2.133,1.557-3.2,2.389c-3.712,2.901-7.339,5.995-10.795,9.429
			c-3.499,3.499-6.613,7.189-9.557,10.944C298.049,408.448,297.43,409.28,296.812,410.133z M377.557,465.941
			c-12.416,12.416-27.115,20.821-41.429,23.68c-12.757,2.496-23.424,0.277-30.08-6.357c-2.773-2.773-4.587-6.379-5.803-10.389
			c-0.021-0.064,0-0.128-0.021-0.213c-0.64-2.176-1.045-4.437-1.237-6.805c0-0.043,0-0.085-0.021-0.128
			c-0.171-2.112-0.128-4.331,0.043-6.571c0.064-0.704,0.149-1.429,0.235-2.176c0.213-1.792,0.491-3.627,0.917-5.483
			c0.512-2.219,1.173-4.416,1.941-6.635c0.64-1.877,1.408-3.733,2.219-5.632c0.853-1.92,1.707-3.819,2.731-5.717
			c0.768-1.429,1.643-2.859,2.517-4.288c1.109-1.771,2.283-3.541,3.52-5.269c0.896-1.259,1.792-2.539,2.773-3.776
			c1.899-2.368,3.947-4.693,6.101-6.933c0.469-0.491,0.875-1.024,1.365-1.493c0.555-0.555,1.152-1.003,1.707-1.557
			c2.197-2.091,4.437-4.075,6.741-5.909c1.429-1.131,2.88-2.133,4.331-3.157c1.472-1.045,2.965-2.048,4.48-2.987
			c1.792-1.109,3.584-2.155,5.397-3.115c1.067-0.555,2.133-1.024,3.2-1.536c13.099-6.101,26.283-7.979,36.544-4.352
			c0.192,0.064,0.405,0.021,0.597,0.085c3.221,1.237,6.187,2.816,8.512,5.141C409.557,409.109,401.622,441.899,377.557,465.941z
			 M396.438,340.352c-0.021,0-0.021-0.021-0.043-0.021c-0.384-0.085-0.725-0.235-1.088-0.341c-2.091-0.512-4.139-1.088-6.101-1.899
			c-1.109-0.448-2.133-1.088-3.2-1.621c-1.237-0.64-2.475-1.237-3.648-1.984c-1.088-0.704-2.069-1.515-3.093-2.304
			c-0.981-0.768-1.984-1.536-2.901-2.389c-0.981-0.917-1.877-1.899-2.773-2.901c-0.789-0.896-1.557-1.813-2.283-2.773
			c-0.811-1.088-1.579-2.197-2.283-3.349c-0.661-1.067-1.237-2.176-1.792-3.285c-0.576-1.152-1.131-2.304-1.6-3.499
			c-0.533-1.387-0.939-2.837-1.344-4.288c-0.277-1.024-0.619-2.027-0.832-3.093c-0.469-2.581-0.789-5.227-0.789-7.936
			c0-2.923,0.299-5.781,0.875-8.555c1.685-8.277,5.845-15.893,12.096-21.973c7.68-7.488,18.133-12.139,29.696-12.139
			C428.865,256,448,275.136,448,298.667s-19.136,42.667-42.667,42.667C402.284,341.333,399.318,340.971,396.438,340.352z"/>
	</g>
</g>
<g>
	<g>
		<path d="M279.19,298.667c-8.427,0-16.469,2.731-23.189,7.723c-6.741-4.992-14.763-7.723-23.189-7.723
			c-22.507,0-40.811,19.563-40.811,43.669c0,10.688,3.904,21.099,11.243,30.101c10.731,13.099,43.477,49.173,44.864,50.709
			c2.027,2.24,4.885,3.52,7.893,3.52s5.867-1.28,7.893-3.499c1.408-1.515,34.133-37.589,44.864-50.709
			c7.339-9.023,11.243-19.413,11.243-30.122C320,318.229,301.696,298.667,279.19,298.667z M292.245,358.955
			c-7.232,8.832-25.621,29.355-36.245,41.152c-10.624-11.797-29.013-32.32-36.245-41.152c-4.245-5.227-6.421-10.795-6.421-16.619
			c0-12.331,8.725-22.336,19.477-22.336c5.632,0,10.987,2.816,14.699,7.701c4.053,5.312,12.971,5.312,17.003,0
			c3.691-4.885,9.045-7.701,14.677-7.701c10.752,0,19.477,10.005,19.477,22.336C298.667,348.16,296.492,353.728,292.245,358.955z"/>
	</g>
</g>
<g>
	<g>
		<path d="M160,42.667c-17.643,0-32,14.336-32,32c0,5.888,4.779,10.667,10.667,10.667s10.667-4.779,10.667-10.667S154.133,64,160,64
			c5.888,0,10.667-4.779,10.667-10.667S165.888,42.667,160,42.667z"/>
	</g>
</g>
<g>
</g>
<g>
</g>
<g>
</g>
<g>
</g>
<g>
</g>
<g>
</g>
<g>
</g>
<g>
</g>
<g>
</g>
<g>
</g>
<g>
</g>
<g>
</g>
<g>
</g>
<g>
</g>
<g>
</g>
</svg>
