<?xml version="1.0" encoding="iso-8859-1"?>
<!-- Generator: Adobe Illustrator 19.0.0, SVG Export Plug-In . SVG Version: 6.00 Build 0)  -->
<svg version="1.1" id="Capa_1" xmlns="http://www.w3.org/2000/svg" xmlns:xlink="http://www.w3.org/1999/xlink" x="0px" y="0px"
	 viewBox="0 0 512 512" style="enable-background:new 0 0 512 512;" xml:space="preserve">
<g>
	<g>
		<path d="M231.381,351.289h-4.626V205.859c0-5.523-4.477-10-10-10h-8.392l-0.136-101.317c1.518-18.825-10.169-43.107-30.719-63.657
			c-13.261-13.261-28.522-23.153-42.974-27.858c-16.74-5.449-30.91-3.5-39.898,5.487c-6.489,6.49-9.33,15.802-8.255,26.957V195.86
			h-8.622c-5.523,0-10,4.477-10,10v145.429h-4.625c-5.523,0-10,4.477-10,10v140.712c0,5.523,4.477,10,10,10h168.245
			c5.523,0,10-4.477,10-10V361.288C241.381,355.766,236.904,351.289,231.381,351.289z M108.779,22.658
			c1.76-1.76,4.665-2.646,8.353-2.646c3.221,0,7.039,0.676,11.214,2.035c11.344,3.692,24.109,12.069,35.022,22.982
			c18.553,18.552,25.902,37.958,24.909,48.223c-0.282,2.002-0.817,3.779-1.514,5.03c-0.299,0.489-0.615,0.901-0.964,1.259
			l-0.001,0.001c-0.023,0.023-0.044,0.047-0.067,0.071c-0.007,0.007-0.014,0.014-0.02,0.021c-0.007,0.008-0.015,0.015-0.022,0.023
			c-0.027,0.029-0.056,0.058-0.082,0.087c-0.007,0.006-0.015,0.012-0.021,0.018c-0.178,0.167-0.372,0.324-0.572,0.475
			c-0.091,0.068-0.187,0.132-0.283,0.197c-0.116,0.079-0.235,0.156-0.357,0.229c-0.13,0.078-0.262,0.156-0.4,0.229
			c-0.079,0.042-0.163,0.081-0.245,0.121c-0.596,0.292-1.255,0.538-1.979,0.73c-0.023,0.006-0.045,0.013-0.068,0.019
			c-0.234,0.061-0.477,0.115-0.724,0.164c-0.071,0.014-0.143,0.028-0.215,0.042c-0.228,0.043-0.46,0.081-0.698,0.115
			c-0.127,0.018-0.258,0.032-0.388,0.046c-0.196,0.023-0.391,0.048-0.594,0.065c-0.362,0.029-0.732,0.051-1.113,0.061
			c-0.01,0-0.02,0-0.03,0c-3.329,0.08-7.339-0.593-11.747-2.028c-7.66-2.493-15.965-7.128-23.913-13.231
			c-0.345-0.265-0.688-0.533-1.03-0.803c-2.726-2.145-5.405-4.455-7.994-6.916c-0.702-0.668-1.398-1.345-2.085-2.032
			c-0.849-0.848-1.672-1.706-2.481-2.565l-0.511-0.553c-0.332-0.358-0.656-0.719-0.982-1.08c-0.31-0.342-0.624-0.681-0.929-1.027
			c-0.118-0.133-0.233-0.265-0.35-0.398c-0.563-0.644-1.114-1.293-1.658-1.944c-0.161-0.192-0.329-0.385-0.488-0.577
			c-0.673-0.817-1.328-1.638-1.969-2.463c-0.073-0.094-0.15-0.189-0.223-0.283c-0.619-0.801-1.217-1.607-1.804-2.413
			c-0.106-0.145-0.215-0.289-0.319-0.434c-0.548-0.76-1.075-1.523-1.594-2.286c-0.135-0.199-0.274-0.398-0.407-0.597
			c-0.434-0.649-0.849-1.299-1.262-1.948c-0.231-0.364-0.463-0.727-0.687-1.091c-0.306-0.498-0.599-0.994-0.892-1.491
			c-0.272-0.462-0.546-0.924-0.805-1.385c-0.25-0.443-0.488-0.884-0.727-1.325c-0.292-0.541-0.584-1.083-0.857-1.618
			c-0.178-0.348-0.348-0.695-0.519-1.041c-0.858-1.744-1.627-3.469-2.293-5.156c-0.057-0.145-0.116-0.291-0.171-0.436
			c-0.218-0.564-0.426-1.125-0.621-1.679c-0.047-0.133-0.089-0.265-0.135-0.398c-0.25-0.729-0.482-1.449-0.692-2.158
			c-0.043-0.147-0.08-0.291-0.122-0.437c-0.185-0.646-0.358-1.286-0.509-1.914c-0.072-0.303-0.129-0.601-0.194-0.901
			c-0.102-0.47-0.209-0.943-0.291-1.402c-0.137-0.773-0.253-1.537-0.335-2.285C105.923,30.324,106.025,25.412,108.779,22.658z
			 M188.364,195.86h-81.983V79.416h0.001c0.126,0.161,0.261,0.319,0.389,0.48c0.346,0.436,0.677,0.871,1.034,1.309l0.51,0.613
			c0.093,0.113,0.192,0.225,0.285,0.338c0.311,0.374,0.629,0.745,0.945,1.117c0.289,0.341,0.57,0.682,0.865,1.023
			c0.245,0.282,0.493,0.563,0.74,0.842c0.496,0.563,1.007,1.12,1.515,1.678c0.197,0.216,0.39,0.436,0.587,0.649l0.195,0.211
			c0.111,0.121,0.224,0.242,0.336,0.362c1.053,1.128,2.124,2.247,3.225,3.348c0.367,0.367,0.744,0.724,1.115,1.087
			c0.468,0.458,0.934,0.922,1.407,1.371c0.191,0.182,0.387,0.356,0.579,0.537c0.662,0.622,1.325,1.243,1.996,1.848
			c0.278,0.251,0.561,0.492,0.841,0.74c0.586,0.52,1.171,1.042,1.762,1.549c0.395,0.338,0.794,0.663,1.191,0.995
			c0.484,0.405,0.965,0.815,1.452,1.211c0.026,0.021,0.052,0.044,0.079,0.066c0.755,0.613,1.518,1.214,2.285,1.807
			c0.241,0.187,0.484,0.369,0.726,0.554c0.569,0.434,1.139,0.862,1.712,1.284c0.278,0.204,0.555,0.409,0.833,0.61
			c0.643,0.465,1.286,0.921,1.93,1.369c0.168,0.117,0.335,0.237,0.503,0.353c0.024,0.016,0.048,0.034,0.072,0.05
			c0.278,0.191,0.555,0.367,0.833,0.555c0.618,0.416,1.236,0.834,1.856,1.235c0.38,0.245,0.758,0.476,1.138,0.715
			c0.533,0.336,1.066,0.676,1.601,1.001c0.465,0.282,0.927,0.547,1.391,0.819c0.45,0.264,0.899,0.534,1.35,0.789
			c0.503,0.285,1.005,0.553,1.507,0.827c0.416,0.227,0.831,0.46,1.247,0.679c0.479,0.253,0.956,0.489,1.434,0.73
			c0.445,0.225,0.89,0.457,1.335,0.674c0.38,0.185,0.757,0.355,1.136,0.534c0.55,0.259,1.1,0.521,1.65,0.767
			c0.181,0.081,0.361,0.154,0.542,0.233c2.505,1.099,5.001,2.066,7.472,2.87c10.711,3.487,20.369,3.944,28.282,1.477L188.364,195.86
			z M168.569,492.001H73.137V371.288h95.432V492.001z M178.568,283.344c-5.523,0-10,4.477-10,10v57.945H87.761v-135.43h118.996
			v135.43h-18.189v-57.945C188.568,287.821,184.091,283.344,178.568,283.344z M221.382,492.001h-32.815V371.288h32.815V492.001z"/>
	</g>
</g>
<g>
	<g>
		<path d="M188.372,254.789c-0.13-0.64-0.32-1.27-0.57-1.88c-0.25-0.6-0.56-1.18-0.92-1.72c-0.36-0.55-0.78-1.06-1.24-1.52
			c-0.46-0.46-0.98-0.88-1.52-1.24c-0.55-0.37-1.13-0.67-1.73-0.92c-0.6-0.26-1.23-0.45-1.87-0.58c-1.29-0.26-2.62-0.26-3.91,0
			c-0.64,0.13-1.27,0.32-1.87,0.58c-0.6,0.25-1.18,0.55-1.73,0.92c-0.54,0.36-1.06,0.78-1.52,1.24c-0.46,0.46-0.87,0.97-1.24,1.52
			c-0.36,0.54-0.67,1.12-0.92,1.72c-0.25,0.61-0.44,1.24-0.57,1.88s-0.19,1.3-0.19,1.95c0,0.65,0.06,1.31,0.19,1.95
			c0.13,0.64,0.32,1.269,0.57,1.87c0.25,0.61,0.56,1.19,0.92,1.73c0.37,0.55,0.78,1.06,1.24,1.52c0.46,0.46,0.98,0.88,1.52,1.24
			c0.55,0.36,1.13,0.67,1.73,0.92s1.23,0.44,1.87,0.57c0.65,0.13,1.3,0.2,1.96,0.2c0.65,0,1.3-0.07,1.95-0.2
			c0.64-0.13,1.27-0.32,1.87-0.57c0.6-0.25,1.18-0.56,1.73-0.92c0.54-0.36,1.06-0.78,1.52-1.24c0.46-0.46,0.88-0.97,1.24-1.52
			c0.36-0.54,0.67-1.12,0.92-1.73c0.25-0.6,0.44-1.23,0.57-1.87c0.13-0.64,0.2-1.3,0.2-1.95
			C188.572,256.089,188.502,255.429,188.372,254.789z"/>
	</g>
</g>
<g>
	<g>
		<path d="M364.741,126.111c-51.899,0-94.122,42.223-94.122,94.122V502c0,5.523,4.477,10,10,10h168.244c5.523,0,10-4.477,10-10
			v-74.089V220.233C458.863,168.335,416.64,126.111,364.741,126.111z M394.22,492.001H290.618v-54.089H394.22V492.001z
			 M404.219,279.684c-5.523,0-10,4.477-10,10v128.229H290.618V220.233c0-40.871,33.252-74.122,74.122-74.122
			c40.872,0,74.123,33.252,74.123,74.122v197.679h-24.644V289.684C414.218,284.161,409.742,279.684,404.219,279.684z
			 M438.864,492.001h-24.644v-54.089h24.644V492.001z"/>
	</g>
</g>
<g>
	<g>
		<path d="M414.024,251.128c-0.13-0.64-0.32-1.27-0.57-1.88c-0.25-0.6-0.56-1.18-0.92-1.72c-0.37-0.55-0.78-1.06-1.24-1.52
			c-0.47-0.46-0.98-0.88-1.52-1.25c-0.55-0.36-1.13-0.66-1.73-0.91c-0.6-0.25-1.23-0.45-1.87-0.58c-1.29-0.26-2.62-0.26-3.91,0
			c-0.64,0.13-1.27,0.33-1.87,0.58s-1.18,0.55-1.73,0.91c-0.54,0.37-1.06,0.79-1.52,1.25c-0.46,0.46-0.88,0.97-1.24,1.52
			c-0.36,0.54-0.67,1.12-0.92,1.72c-0.25,0.61-0.44,1.24-0.57,1.88c-0.13,0.64-0.19,1.3-0.19,1.95s0.06,1.31,0.19,1.95
			s0.32,1.271,0.57,1.87c0.25,0.61,0.56,1.191,0.92,1.73c0.36,0.55,0.78,1.06,1.24,1.52c0.46,0.461,0.98,0.88,1.52,1.24
			c0.55,0.36,1.13,0.67,1.73,0.92c0.6,0.25,1.23,0.44,1.87,0.57c0.65,0.13,1.3,0.2,1.95,0.2c0.66,0,1.31-0.07,1.96-0.2
			c0.64-0.13,1.27-0.32,1.87-0.57c0.6-0.25,1.18-0.56,1.73-0.92c0.54-0.36,1.05-0.78,1.52-1.24c0.46-0.46,0.87-0.97,1.24-1.52
			c0.36-0.539,0.67-1.12,0.92-1.73c0.25-0.6,0.44-1.23,0.57-1.87s0.19-1.3,0.19-1.95S414.154,251.768,414.024,251.128z"/>
	</g>
</g>
<g>
</g>
<g>
</g>
<g>
</g>
<g>
</g>
<g>
</g>
<g>
</g>
<g>
</g>
<g>
</g>
<g>
</g>
<g>
</g>
<g>
</g>
<g>
</g>
<g>
</g>
<g>
</g>
<g>
</g>
</svg>
