<svg id="Capa_1" enable-background="new 0 0 511.997 511.997" height="512" viewBox="0 0 511.997 511.997" width="512" xmlns="http://www.w3.org/2000/svg"><g><circle cx="228.714" cy="286.745" r="7.5"/><circle cx="228.714" cy="323.778" r="7.5"/><circle cx="247.23" cy="305.261" r="7.5"/><circle cx="210.198" cy="305.261" r="7.5"/><path d="m51.718 312.761h11.016v11.017c0 4.143 3.358 7.5 7.5 7.5s7.5-3.357 7.5-7.5v-11.017h11.016c4.142 0 7.5-3.357 7.5-7.5s-3.358-7.5-7.5-7.5h-11.016v-11.016c0-4.143-3.358-7.5-7.5-7.5s-7.5 3.357-7.5 7.5v11.016h-11.016c-4.142 0-7.5 3.357-7.5 7.5s3.358 7.5 7.5 7.5z"/><path d="m123.65 322.1h11.601c4.142 0 7.5-3.357 7.5-7.5s-3.358-7.5-7.5-7.5h-11.601c-4.142 0-7.5 3.357-7.5 7.5s3.358 7.5 7.5 7.5z"/><path d="m163.2 322.1h11.601c4.142 0 7.5-3.357 7.5-7.5s-3.358-7.5-7.5-7.5h-11.601c-4.142 0-7.5 3.357-7.5 7.5s3.358 7.5 7.5 7.5z"/><circle cx="203.649" cy="119.215" r="7.5"/><path d="m499.485 206.11c-3.996 1.092-6.35 5.217-5.257 9.212 1.837 6.721 2.769 13.695 2.769 20.731 0 15.506-4.518 30.493-13.064 43.344-15.119 22.735-24.807 47.111-28.794 72.45l-.553 3.512c-.197 1.258-1.265 2.171-2.538 2.171h-25.935v-47.27c16.665-3.472 29.224-18.273 29.224-35.953 0-4.143-3.357-7.5-7.5-7.5s-7.5 3.357-7.5 7.5c0 11.979-9.745 21.724-21.724 21.724s-21.724-9.745-21.724-21.724c0-4.143-3.357-7.5-7.5-7.5s-7.5 3.357-7.5 7.5c0 17.68 12.559 32.481 29.224 35.953v47.27h-25.933c-1.273 0-2.342-.913-2.539-2.17l-.803-5.106c-3.888-24.708-13.392-48.399-28.249-70.416-8.914-13.209-13.531-28.658-13.354-44.678.463-41.734 34.773-76.486 76.484-77.468 24.272-.562 47.047 9.857 62.468 28.61 2.632 3.2 7.359 3.657 10.557 1.029 3.199-2.631 3.66-7.357 1.029-10.557-16.289-19.807-39.467-31.797-64.66-33.803v-68.526c0-9.458-7.695-17.153-17.153-17.153h-250.081c-9.458 0-17.154 7.695-17.154 17.153v30.522c0 4.143 3.358 7.5 7.5 7.5s7.5-3.357 7.5-7.5v-30.522c0-1.188.966-2.153 2.154-2.153h250.081c1.188 0 2.153.966 2.153 2.153v68.523c-4.129.33-8.207.932-12.212 1.798v-48.757c0-6.345-5.161-11.506-11.506-11.506h-206.951c-6.345 0-11.506 5.161-11.506 11.506v166.58h-12.212v-122.622c0-4.143-3.358-7.5-7.5-7.5s-7.5 3.357-7.5 7.5v16.028h-43.521c-4.142 0-7.5 3.357-7.5 7.5s3.358 7.5 7.5 7.5h43.521v10h-21.434c-3.639 0-7.004 1.973-8.782 5.149l-.114.204h-35.267l-.116-.208c-1.778-3.174-5.143-5.146-8.78-5.146h-25.741c-5.896 0-10.692 4.797-10.692 10.692v72.562c-3.9 3.753-7.279 8.078-10 12.871v-87.589c0-10.221 8.315-18.536 18.537-18.536h23.869c4.142 0 7.5-3.357 7.5-7.5s-3.358-7.5-7.5-7.5h-23.87c-18.492 0-33.537 15.044-33.537 33.536v143.647c-2.303 12.843-4.314 27.051-5.251 41.073-3.104 46.443 6.976 73.114 29.958 79.272 3.606.967 7.071 1.309 10.385 1.141h107.299c2.102 0 4.195-.196 6.249-.583 1.417.38 2.906.583 4.441.583h250.081c1.47 0 2.912-.183 4.31-.546 1.726.358 3.513.546 5.343.546 14.494 0 26.285-11.791 26.285-26.284v-1.204c8.316-1.482 14.649-8.767 14.649-17.502v-10.158c2.843-1.066 4.866-3.809 4.866-7.024s-2.023-5.958-4.866-7.024v-14.596c5.131-2.404 8.919-7.227 9.856-13.181l.553-3.512c3.648-23.188 12.553-45.554 26.466-66.476 10.188-15.319 15.574-33.18 15.574-51.65 0-8.372-1.11-16.678-3.3-24.687-1.092-3.995-5.224-6.345-9.212-5.255zm-57.715 206.343h-46.312c-1.532 0-2.778-1.246-2.778-2.778v-9.683h51.868v9.683c0 1.532-1.246 2.778-2.778 2.778zm-257.832 0v-20.181c4.64.303 9.351-.474 13.751-2.399 3.72 8.324 7.492 15.852 11.311 22.58zm1.941-35.118c-8.024 0-14.552-6.528-14.552-14.552 0-8.008 6.513-14.552 14.552-14.552 8.024 0 14.552 6.528 14.552 14.552 0 8.037-6.541 14.552-14.552 14.552zm-58.755-14.551c0 8.023-6.528 14.552-14.552 14.552-8.005 0-14.552-6.51-14.552-14.552 0-8.023 6.528-14.552 14.552-14.552s14.552 6.529 14.552 14.552zm-26.361 27.089c3.619 1.583 7.613 2.463 11.809 2.463 14.643 0 26.833-10.706 29.154-24.702v47.031h-53.55c4.256-7.278 8.453-15.543 12.587-24.792zm-22.482 39.792h63.445c.037 7.483-.092 8.201.135 10h-72.144c2.878-2.913 5.733-6.246 8.564-10zm80.598 10c-1.188 0-2.154-.966-2.154-2.153v-69.877c1.323 7.977 5.851 14.884 12.212 19.35v28.963c0 6.345 5.162 11.506 11.506 11.506h38.094c3.364 4.669 6.763 8.74 10.193 12.212h-69.851zm134.386-12.212h94.131c1.228 0 2.436-.197 3.581-.572.445.116.896.215 1.353.296v1.204c0 4.037.915 7.863 2.548 11.284h-107.635c2.388-3.48 4.396-7.552 6.022-12.212zm99.415-42.461v-12.462h51.868v12.462zm-8.779-285.489v49.871c-33.388 13.465-58.229 46.372-58.666 85.619-.211 19.08 5.294 37.488 15.92 53.234 13.619 20.182 22.321 41.835 25.864 64.356l.803 5.106c.937 5.954 4.726 10.777 9.857 13.181v14.596c-2.843 1.066-4.866 3.809-4.866 7.024s2.023 5.958 4.866 7.024v10.158c0 .945.074 1.873.217 2.778h-81.012c1.659-10.729 2.002-23.47 1.017-38.201-2.302-34.444-11.084-70.015-14.754-83.709-6.754-25.207-29.673-42.513-55.727-42.15h-19.406c-9.037 0-17.695 3.585-24.079 9.902v-158.789zm-338.101 96.493h18.539l.112.201c1.777 3.178 5.142 5.152 8.783 5.152h41.056c3.639 0 7.004-1.974 8.782-5.15l.114-.203h18.539v66.594h-19.65c-2.317 0-4.53-.992-6.07-2.723-6.488-7.292-15.808-11.475-25.57-11.475h-19.406c-8.87-.122-17.434 1.778-25.229 5.484zm-30.285 179.255c2.275-34.055 11.502-70.475 14.276-80.826 4.947-18.464 21.749-31.38 41.063-31.034.04.001.079.001.118.001h19.462c5.484 0 10.72 2.35 14.365 6.446 4.384 4.926 10.681 7.751 17.275 7.751h54.341c6.524 0 12.841-2.812 17.235-7.752 3.645-4.096 8.881-6.445 14.365-6.445h19.461c.04 0 .079 0 .118-.001 18.926-.331 36.03 12.245 41.064 31.034 2.773 10.352 12 46.774 14.275 80.826 1.402 20.979 1.424 58.345-18.874 63.784-22.027 5.902-42.823-32.518-54.27-58.906 3.546-4.875 5.639-10.87 5.639-17.345 0-16.295-13.257-29.552-29.552-29.552-10.55 0-19.827 5.557-25.056 13.898h-23.195c-5.23-8.341-14.506-13.898-25.056-13.898-16.295 0-29.552 13.257-29.552 29.552 0 6.475 2.094 12.471 5.639 17.345-11.446 26.389-32.237 64.807-54.27 58.906-18.783-5.034-20.63-37.464-18.871-63.784zm403.098 64.414c-6.222 0-11.284-5.062-11.284-11.284v-.928h22.569v.928c.001 6.221-5.062 11.284-11.285 11.284z"/></g></svg>