<svg height="512" viewBox="0 0 512 512" width="512" xmlns="http://www.w3.org/2000/svg"><g><path d="m388 8h-264a28.031 28.031 0 0 0 -28 28v416a28.043 28.043 0 0 0 24 27.71v16.29a8 8 0 0 0 8 8h48a8 8 0 0 0 8-8v-16h144v16a8 8 0 0 0 8 8h48a8 8 0 0 0 8-8v-16.29a28.043 28.043 0 0 0 24-27.71v-416a28.031 28.031 0 0 0 -28-28zm-220 480h-32v-8h32zm208 0h-32v-8h32zm24-36a12.01 12.01 0 0 1 -12 12h-264a12.01 12.01 0 0 1 -12-12v-252h288zm0-268h-288v-148a12.01 12.01 0 0 1 12-12h264a12.01 12.01 0 0 1 12 12z"/><path d="m136 152a8 8 0 0 0 8-8v-64a8 8 0 0 0 -16 0v64a8 8 0 0 0 8 8z"/><path d="m136 232a8 8 0 0 0 -8 8v64a8 8 0 0 0 16 0v-64a8 8 0 0 0 -8-8z"/><path d="m376 432h-64a8 8 0 0 0 0 16h64a8 8 0 0 0 0-16z"/><path d="m288 432h-8a8 8 0 0 0 0 16h8a8 8 0 0 0 0-16z"/></g></svg>