<svg height="56" viewBox="0 0 60 56" width="60" xmlns="http://www.w3.org/2000/svg"><g id="Page-1" fill="none" fill-rule="evenodd"><g id="026---Jewellery-Icon" fill="rgb(0,0,0)" fill-rule="nonzero"><path id="Shape" d="m57.048 28.339c-.2516946-1.9677522-1.3249998-3.7368528-2.954-4.869l-3.343-2.319 4.517-5.251c.4535447-.5305462.7087509-1.2021415.722-1.9v-.009c.0159555-.6786077-.1952183-1.3431012-.6-1.888l-8.272-10.926c-.5731476-.72188189-1.4365723-1.1528619-2.358-1.177h-33.52c-.9211591.02430489-1.78439063.45482238-2.358 1.176l-8.272 10.934c-.40582621.545072-.61677659 1.210675-.599 1.89.01341456.6978265.26860025 1.3693678.722 1.9l25.028 29.071c.5598858.6538698 1.3776761 1.030251 2.2385 1.030251s1.6786142-.3763812 2.2385-1.030251l5.877-6.829 2.044 16.108c.0663189.5275298.3399596 1.0069417.7604611 1.3323097.4205016.3253681.9532515.4699103 1.4805389.4016903l17.857-2.266c1.0957152-.1392069 1.8711412-1.1402765 1.732-2.236zm-3.493-15.339h-14.647l7-10.11zm-25.555 28.413-7.669-26.413h15.338zm0-38.656 7.091 10.243h-14.182zm-9 9.486-7.089-10.243h14.18zm10.909-10.243h14.18l-7.089 10.243zm-19.815.89 7 10.11h-14.649zm-7.5 12.11h15.655l7.965 27.432zm27.193 27.431 7.964-27.431h15.655l-4.307 5-1.645-1.142c-1.67954-1.1731623-3.9749651-.8816934-5.308.674l-5.28 6.119c-1.2942646 1.5034436-1.8909113 3.4848774-1.642 5.453l.553 4.362zm10.357 11.569-2.937-23.143c-.1783991-1.4060446.248309-2.8217414 1.174-3.895l5.279-6.119c.6667626-.7766077 1.8132472-.9222411 2.653-.337l6.64 4.607c1.1638727.8089093 1.9305605 2.0730358 2.11 3.479l2.937 23.142z"/><path id="Shape" d="m46.051 29.058c1.6432585-.2090825 2.8060575-1.7104604 2.5974626-3.3537809-.2085948-1.6433205-1.7096276-2.8065649-3.3530099-2.5984578-1.6433823.2081072-2.8070722 1.7087947-2.5994527 3.3522387.0997813.7898344.5094129 1.5076196 1.1386834 1.9952807.6292704.4876612 1.4265713.7052037 2.2163166.6047193zm-.5-3.968c.5474976-.0689725 1.0473829.318584 1.117.866.0506316.4013092-.1454823.7935989-.4968834.9939234-.351401.2003245-.7888766.1692276-1.1084084-.0787886-.3195318-.2480161-.4581843-.6641019-.3512964-1.0542142.1068879-.3901122.4382633-.6774138.8395882-.7279206z"/><path id="Shape" d="m50.972 40.609c-1.0808499-.5842789-2.3200341-.8081519-3.537-.639-1.611.208-3.091-.53-3.228-1.606s1.111-2.157 2.725-2.364c1.1846942-.2615294 2.4105607.2139917 3.109 1.206.2557226.4655993.8308495.6500091 1.3096375.4199249.4787881-.2300843.6941306-.7943586.4903625-1.2849249-.8503503-1.4892385-2.4464214-2.3948679-4.161-2.361l-.134-1.08c-.0734277-.544332-.5721434-.9275546-1.1170278-.8583455s-.9319586.5649414-.8669722 1.1103455l.136 1.072c-2.214.656-3.717 2.475-3.475 4.392.278 2.188 2.723 3.686 5.464 3.339.7888312-.1159645 1.594116.021284 2.3.392.5070954.2066301.8634782.6705057.9324677 1.2137204.0689895.5432146-.160123 1.0814495-.5994677 1.4082796-.5899655.5340327-1.3338222.8676305-2.125.953-1.1835065.2636392-2.4095315-.2095773-3.109-1.2-.1420178-.3419042-.4613144-.5773666-.8299159-.6120141-.3686015-.0346474-.7261832.1371904-.9294264.4466411-.2032433.3094506-.2188857.7058698-.0406577 1.030373.8500903 1.4896238 2.4462116 2.3956653 4.161 2.362l.137 1.081c.0634.4991663.4878238.8734816.991.874.0424522-.0002137.0848565-.0028849.127-.008.2632733-.0331826.5025633-.1696444.6651774-.379336.1626142-.2096916.2352175-.4754175.2018226-.738664l-.145-1.078c.8543339-.2401109 1.637712-.683785 2.283-1.293.8940841-.7659386 1.3431887-1.9300645 1.1951794-3.0980292s-.8733001-2.1832664-1.9301794-2.7019708z"/></g></g></svg>