<svg height="512pt" viewBox="-23 0 512 512.00013" width="512pt" xmlns="http://www.w3.org/2000/svg"><path d="m232.742188 122.371094c-11.382813 0-20.644532 9.261718-20.644532 20.644531s9.261719 20.640625 20.644532 20.640625c11.382812 0 20.640624-9.257812 20.640624-20.640625s-9.257812-20.644531-20.640624-20.644531zm0 26.285156c-3.113282 0-5.644532-2.53125-5.644532-5.640625 0-3.113281 2.53125-5.644531 5.644532-5.644531 3.109374 0 5.640624 2.53125 5.640624 5.644531 0 3.109375-2.53125 5.640625-5.640624 5.640625zm0 0"/><path d="m232.742188 183.800781c-11.382813 0-20.644532 9.257813-20.644532 20.640625 0 11.382813 9.261719 20.640625 20.644532 20.640625 11.382812 0 20.640624-9.257812 20.640624-20.640625 0-11.382812-9.257812-20.640625-20.640624-20.640625zm0 26.28125c-3.113282 0-5.644532-2.53125-5.644532-5.640625 0-3.113281 2.53125-5.644531 5.644532-5.644531 3.109374 0 5.640624 2.53125 5.640624 5.644531 0 3.109375-2.53125 5.640625-5.640624 5.640625zm0 0"/><path d="m232.742188 245.222656c-11.382813 0-20.644532 9.261719-20.644532 20.644532 0 11.382812 9.261719 20.640624 20.644532 20.640624 11.382812 0 20.640624-9.257812 20.640624-20.640624 0-11.382813-9.257812-20.644532-20.640624-20.644532zm0 26.285156c-3.113282 0-5.644532-2.527343-5.644532-5.640624 0-3.109376 2.53125-5.644532 5.644532-5.644532 3.109374 0 5.640624 2.53125 5.640624 5.644532 0 3.113281-2.53125 5.640624-5.640624 5.640624zm0 0"/><path d="m441.890625 68.257812-32.886719-11.640624.191406-1.824219c.34375-3.324219-1.554687-6.480469-4.65625-7.730469-61.035156-24.625-57.609374-23.8125-60.824218-23.058594-13.5625-21.828125-13.753906-24.019531-19.125-23.9843748h-50.566406c-4.140626 0-7.496094 3.3593748-7.496094 7.4999998s3.355468 7.5 7.496094 7.5h26.871093l-55.871093 39.199219h-24.5625l-55.875-39.199219h74.441406c4.140625 0 7.5-3.359375 7.5-7.5s-3.359375-7.4999998-7.5-7.4999998c-103.976563 0-98.78125-.1367192-100.28125.3007808-3.667969 1.054688-3.386719 1.808594-16.980469 23.683594-3.246094-.765625.113281-1.523437-60.824219 23.058594-3.097656 1.25-5 4.40625-4.652344 7.730469l.191407 1.824219-32.886719 11.640624c-14.113281 4.996094-23.59375 18.410157-23.59375 33.378907v255.371093c0 4.140626 3.359375 7.5 7.5 7.5s7.5-3.359374 7.5-7.5v-255.371093c0-8.628907 5.464844-16.359375 13.597656-19.238281l29.476563-10.433594 1.519531 14.632812c11.867188 114.109375 70.917969 218.324219 162.414062 287.164063-26.59375 35.261719-34.339843 81.203125-20.769531 123.238281h-165.828125c-11.253906 0-20.410156-9.15625-20.410156-20.410156v-84.585938c0-4.140625-3.359375-7.5-7.5-7.5s-7.5 3.359375-7.5 7.5v84.585938c0 19.523437 15.882812 35.410156 35.410156 35.410156h394.664063c19.523437 0 35.410156-15.882812 35.410156-35.410156v-374.953125c-.003906-14.96875-9.484375-28.382813-23.59375-33.378907zm-50.921875 16.789063c-10.859375 104.429687-62.722656 200.257813-143.4375 266.457031l51.570312-156.074218c1.300782-3.933594-.835937-8.175782-4.769531-9.472657-3.929687-1.300781-8.171875.832031-9.472656 4.765625l-52.117187 157.734375-71.65625-216.851562c16.726562-1.625 32.949218-7.792969 46.5-17.777344 1.917968 1.238281 4.199218 1.957031 6.648437 1.957031 40.203125 0 39.617187.65625 43.660156-1.957031 13.550781 9.984375 29.773438 16.152344 46.5 17.777344l-8.554687 25.886719c-1.300782 3.933593.835937 8.175781 4.769531 9.476562 3.929687 1.296875 8.171875-.835938 9.472656-4.769531l39.964844-120.945313 43.644531 17.605469c-.335937 3.21875.746094-7.1875-2.722656 26.1875zm-247.945312-66.832031 32.371093 22.710937c-7.558593-1.949219-15.363281-2.957031-23.195312-2.957031-4.140625 0-7.5 3.355469-7.5 7.5v36.539062l-14.34375-43.410156zm58.933593 81.085937c-12.578125 9.441407-25.121093 15.695313-42.257812 17.367188v-63.335938c17.027343 1.664063 29.574219 7.851563 42.257812 17.367188v6.800781h-21.128906c-4.140625 0-7.5 3.359375-7.5 7.5 0 4.144531 3.359375 7.5 7.5 7.5h21.128906zm133.167969-60.703125-14.34375 43.410156v-36.539062c0-4.144531-3.359375-7.5-7.5-7.5-7.832031 0-15.636719 1.007812-23.195312 2.957031l32.371093-22.710937zm-71.601562 53.902344h21.128906c4.140625 0 7.5-3.355469 7.5-7.5 0-4.140625-3.359375-7.496094-7.5-7.496094h-21.128906v-6.800781c12.574218-9.4375 25.117187-15.695313 42.257812-17.367187v63.335937c-17.027344-1.664063-29.570312-7.851563-42.257812-17.367187zm-15-23.285156v31.570312h-8.28125v-15.785156c0-4.140625-3.359376-7.496094-7.5-7.496094-4.144532 0-7.5 3.355469-7.5 7.496094v15.785156h-8.285157v-31.566406h31.566407zm-174.007813 15.832031c-.363281-3.484375-2.4375-23.425781-2.722656-26.1875l43.644531-17.609375 102.515625 310.253906c-80.714844-66.199218-132.582031-162.027344-143.4375-266.457031zm375.96875 391.542969c0 11.253906-9.15625 20.410156-20.410156 20.410156h-212.972657c-14.917968-40.566406-7.035156-85.933594 20.78125-119.105469 94.679688-68.761719 155.898438-174.878906 168.003907-291.296875l1.519531-14.632812 29.476562 10.433594c8.132813 2.878906 13.597657 10.609374 13.597657 19.238281v374.953125zm0 0"/><path d="m434.945312 324.1875v-18.324219c0-4.140625-3.355468-7.496093-7.496093-7.496093h-96c-4.140625 0-7.496094 3.355468-7.496094 7.496093v18.324219c-3.207031.851562-5.574219 3.773438-5.574219 7.25v29.996094c0 4.144531 3.359375 7.5 7.5 7.5h107.140625c4.140625 0 7.5-3.355469 7.5-7.5v-29.996094c0-3.476562-2.363281-6.398438-5.574219-7.25zm-95.996093-10.824219h81v10.574219h-81zm86.570312 40.570313h-92.140625v-14.996094h92.140625zm0 0"/><path d="m241.699219 413.644531c-13.667969 0-24.785157 11.117188-24.785157 24.785157 0 13.667968 11.117188 24.785156 24.785157 24.785156 13.664062 0 24.785156-11.117188 24.785156-24.785156 0-13.667969-11.121094-24.785157-24.785156-24.785157zm0 34.570313c-5.394531 0-9.785157-4.390625-9.785157-9.785156 0-5.394532 4.390626-9.785157 9.785157-9.785157s9.785156 4.390625 9.785156 9.785157c0 5.394531-4.390625 9.785156-9.785156 9.785156zm0 0"/></svg>