<?xml version="1.0" encoding="iso-8859-1"?>
<!-- Generator: Adobe Illustrator 19.0.0, SVG Export Plug-In . SVG Version: 6.00 Build 0)  -->
<svg version="1.1" id="Capa_1" xmlns="http://www.w3.org/2000/svg" xmlns:xlink="http://www.w3.org/1999/xlink" x="0px" y="0px"
	 viewBox="0 0 512 512" style="enable-background:new 0 0 512 512;" xml:space="preserve">
<g>
	<g>
		<path d="M245.333,234.667H32c-17.673,0-32,14.327-32,32V480c0,17.673,14.327,32,32,32h213.333c17.673,0,32-14.327,32-32V266.667
			C277.333,248.994,263.006,234.667,245.333,234.667z M256,480c0,5.891-4.776,10.667-10.667,10.667H32
			c-5.891,0-10.667-4.776-10.667-10.667V266.667C21.333,260.776,26.109,256,32,256h213.333c5.891,0,10.667,4.776,10.667,10.667V480z
			"/>
	</g>
</g>
<g>
	<g>
		<path d="M170.667,277.333v53.333h-64v-53.333H85.333v64C85.333,347.224,90.109,352,96,352h85.333
			c5.891,0,10.667-4.776,10.667-10.667v-64H170.667z"/>
	</g>
</g>
<g>
	<g>
		<path d="M106.667,394.667H64c-5.891,0-10.667,4.776-10.667,10.667V448c0,5.891,4.776,10.667,10.667,10.667h42.667
			c5.891,0,10.667-4.776,10.667-10.667v-42.667C117.333,399.442,112.558,394.667,106.667,394.667z M96,437.333H74.667V416H96
			V437.333z"/>
	</g>
</g>
<g>
	<g>
		<rect x="138.67" y="394.67" width="74.67" height="21.333"/>
	</g>
</g>
<g>
	<g>
		<rect x="138.67" y="437.33" width="42.667" height="21.333"/>
	</g>
</g>
<g>
	<g>
		<path d="M373.333,0H160c-17.673,0-32,14.327-32,32v213.333h21.333V32c0-5.891,4.776-10.667,10.667-10.667h213.333
			C379.224,21.333,384,26.109,384,32v213.333h21.333V32C405.333,14.327,391.006,0,373.333,0z"/>
	</g>
</g>
<g>
	<g>
		<path d="M298.667,42.667V96h-64V42.667h-21.333v64c0,5.891,4.776,10.667,10.667,10.667h85.333c5.891,0,10.667-4.776,10.667-10.667
			v-64H298.667z"/>
	</g>
</g>
<g>
	<g>
		<path d="M234.667,160H192c-5.891,0-10.667,4.776-10.667,10.667v42.667h21.333v-32H224v32h21.333v-42.667
			C245.333,164.776,240.558,160,234.667,160z"/>
	</g>
</g>
<g>
	<g>
		<rect x="266.67" y="160" width="74.67" height="21.333"/>
	</g>
</g>
<g>
	<g>
		<path d="M480,234.667H298.667V256H480c5.891,0,10.667,4.776,10.667,10.667V480c0,5.891-4.776,10.667-10.667,10.667H298.667V512
			H480c17.673,0,32-14.327,32-32V266.667C512,248.994,497.673,234.667,480,234.667z"/>
	</g>
</g>
<g>
	<g>
		<path d="M405.333,277.333v53.333h-64v-53.333H320v64c0,5.891,4.776,10.667,10.667,10.667H416c5.891,0,10.667-4.776,10.667-10.667
			v-64H405.333z"/>
	</g>
</g>
<g>
	<g>
		<path d="M341.333,394.667h-42.667V416h32v21.333h-32v21.333h42.667c5.891,0,10.667-4.776,10.667-10.667v-42.667
			C352,399.442,347.224,394.667,341.333,394.667z"/>
	</g>
</g>
<g>
	<g>
		<rect x="373.33" y="394.67" width="74.67" height="21.333"/>
	</g>
</g>
<g>
	<g>
		<rect x="373.33" y="437.33" width="42.667" height="21.333"/>
	</g>
</g>
<g>
</g>
<g>
</g>
<g>
</g>
<g>
</g>
<g>
</g>
<g>
</g>
<g>
</g>
<g>
</g>
<g>
</g>
<g>
</g>
<g>
</g>
<g>
</g>
<g>
</g>
<g>
</g>
<g>
</g>
</svg>
